<svg width="185" height="112" viewBox="0 0 185 112" fill="none" xmlns="http://www.w3.org/2000/svg">
<path d="M88.2918 9.90909H91.2009L81.0191 71.5455C79.9888 77.8485 77.61 83.4848 73.8827 88.4545C70.1554 93.3939 65.5342 97.303 60.0191 100.182C54.5039 103.03 48.5342 104.455 42.11 104.455C35.807 104.455 30.3676 103.015 25.7918 100.136C21.216 97.2576 17.8676 93.3485 15.7463 88.4091C13.6251 83.4394 13.0797 77.8182 14.11 71.5455L24.2918 9.90909H27.2009L17.0191 71.5455C16.0797 77.303 16.5191 82.4394 18.3373 86.9545C20.1554 91.4697 23.11 95.0303 27.2009 97.6364C31.2918 100.242 36.2615 101.545 42.11 101.545C47.9585 101.545 53.4433 100.242 58.5645 97.6364C63.6857 95.0303 67.9888 91.4697 71.4736 86.9545C74.9585 82.4394 77.1706 77.303 78.11 71.5455L88.2918 9.90909ZM165.292 33.1818C165.868 26.8182 164.307 21.5909 160.61 17.5C156.913 13.4091 151.443 11.3636 144.201 11.3636C139.474 11.3636 135.08 12.2879 131.019 14.1364C126.989 15.9545 123.625 18.4545 120.928 21.6364C118.231 24.7879 116.534 28.3939 115.837 32.4545C115.443 34.8182 115.474 37 115.928 39C116.413 40.9697 117.322 42.7879 118.655 44.4545C120.019 46.0909 121.822 47.5758 124.065 48.9091C126.337 50.2424 129.049 51.4242 132.201 52.4545L142.201 55.7273C146.019 56.9697 149.277 58.3636 151.974 59.9091C154.701 61.4545 156.868 63.1818 158.474 65.0909C160.08 67 161.155 69.1364 161.701 71.5C162.277 73.8636 162.322 76.4848 161.837 79.3636C161.019 84.3636 159.095 88.7576 156.065 92.5455C153.034 96.303 149.125 99.2273 144.337 101.318C139.58 103.409 134.14 104.455 128.019 104.455C122.383 104.455 117.595 103.47 113.655 101.5C109.716 99.5 106.792 96.7576 104.883 93.2727C103.004 89.7576 102.292 85.7273 102.746 81.1818H105.655C105.292 85.1818 105.958 88.7121 107.655 91.7727C109.383 94.8333 112.019 97.2273 115.565 98.9545C119.11 100.682 123.443 101.545 128.565 101.545C133.928 101.545 138.762 100.606 143.065 98.7273C147.368 96.8485 150.898 94.2424 153.655 90.9091C156.443 87.5758 158.201 83.7273 158.928 79.3636C159.474 76.0303 159.216 73.0758 158.155 70.5C157.125 67.9242 155.216 65.6515 152.428 63.6818C149.64 61.7121 145.868 59.9697 141.11 58.4545L130.928 55.1818C123.989 52.9394 119.034 49.9394 116.065 46.1818C113.095 42.3939 112.049 37.8182 112.928 32.4545C113.716 27.7576 115.58 23.6061 118.519 20C121.489 16.3939 125.231 13.5758 129.746 11.5454C134.262 9.48485 139.201 8.45454 144.565 8.45454C149.898 8.45454 154.413 9.51515 158.11 11.6364C161.807 13.7576 164.534 16.6818 166.292 20.4091C168.049 24.1364 168.686 28.3939 168.201 33.1818H165.292Z" fill="#82E8F2"/>
<path d="M98.2918 9.90909H101.201L91.0191 71.5455C89.9888 77.8485 87.61 83.4848 83.8827 88.4545C80.1554 93.3939 75.5342 97.303 70.0191 100.182C64.5039 103.03 58.5342 104.455 52.11 104.455C45.807 104.455 40.3676 103.015 35.7918 100.136C31.216 97.2576 27.8676 93.3485 25.7463 88.4091C23.6251 83.4394 23.0797 77.8182 24.11 71.5455L34.2918 9.90909H37.2009L27.0191 71.5455C26.0797 77.303 26.5191 82.4394 28.3373 86.9545C30.1554 91.4697 33.11 95.0303 37.2009 97.6364C41.2918 100.242 46.2615 101.545 52.11 101.545C57.9585 101.545 63.4433 100.242 68.5645 97.6364C73.6857 95.0303 77.9888 91.4697 81.4736 86.9545C84.9585 82.4394 87.1706 77.303 88.11 71.5455L98.2918 9.90909ZM175.292 33.1818C175.868 26.8182 174.307 21.5909 170.61 17.5C166.913 13.4091 161.443 11.3636 154.201 11.3636C149.474 11.3636 145.08 12.2879 141.019 14.1364C136.989 15.9545 133.625 18.4545 130.928 21.6364C128.231 24.7879 126.534 28.3939 125.837 32.4545C125.443 34.8182 125.474 37 125.928 39C126.413 40.9697 127.322 42.7879 128.655 44.4545C130.019 46.0909 131.822 47.5758 134.065 48.9091C136.337 50.2424 139.049 51.4242 142.201 52.4545L152.201 55.7273C156.019 56.9697 159.277 58.3636 161.974 59.9091C164.701 61.4545 166.868 63.1818 168.474 65.0909C170.08 67 171.155 69.1364 171.701 71.5C172.277 73.8636 172.322 76.4848 171.837 79.3636C171.019 84.3636 169.095 88.7576 166.065 92.5455C163.034 96.303 159.125 99.2273 154.337 101.318C149.58 103.409 144.14 104.455 138.019 104.455C132.383 104.455 127.595 103.47 123.655 101.5C119.716 99.5 116.792 96.7576 114.883 93.2727C113.004 89.7576 112.292 85.7273 112.746 81.1818H115.655C115.292 85.1818 115.958 88.7121 117.655 91.7727C119.383 94.8333 122.019 97.2273 125.565 98.9545C129.11 100.682 133.443 101.545 138.565 101.545C143.928 101.545 148.762 100.606 153.065 98.7273C157.368 96.8485 160.898 94.2424 163.655 90.9091C166.443 87.5758 168.201 83.7273 168.928 79.3636C169.474 76.0303 169.216 73.0758 168.155 70.5C167.125 67.9242 165.216 65.6515 162.428 63.6818C159.64 61.7121 155.868 59.9697 151.11 58.4545L140.928 55.1818C133.989 52.9394 129.034 49.9394 126.065 46.1818C123.095 42.3939 122.049 37.8182 122.928 32.4545C123.716 27.7576 125.58 23.6061 128.519 20C131.489 16.3939 135.231 13.5758 139.746 11.5454C144.262 9.48485 149.201 8.45454 154.565 8.45454C159.898 8.45454 164.413 9.51515 168.11 11.6364C171.807 13.7576 174.534 16.6818 176.292 20.4091C178.049 24.1364 178.686 28.3939 178.201 33.1818H175.292Z" fill="#82E8F2"/>
</svg>
